<svg width="21" height="21" viewBox="0 0 21 21" fill="none" xmlns="http://www.w3.org/2000/svg">
<g clip-path="url(#clip0_137_1523)">
<g filter="url(#filter0_d_137_1523)">
<path d="M7.08029 4.19995C5.32999 4.19995 3.90601 5.62479 3.90601 7.37612C3.90601 7.61942 4.10313 7.81663 4.34623 7.81663C4.58937 7.81663 4.78645 7.61942 4.78645 7.37612C4.78645 6.11054 5.81545 5.08093 7.08029 5.08093C7.32343 5.08093 7.52051 4.88372 7.52051 4.64042C7.52051 4.39715 7.32343 4.19995 7.08029 4.19995Z" fill="white"/>
</g>
<g filter="url(#filter1_d_137_1523)">
<path d="M14.8336 12.3667C15.6294 11.1183 16.0905 9.63724 16.0905 8.05001C16.0905 3.61085 12.4818 0 8.04526 0C6.45894 0 4.97872 0.461426 3.73115 1.25766C2.73714 1.89176 1.89123 2.73816 1.2575 3.73275C0.461713 4.9811 0 6.46275 0 8.05001C0 12.4886 3.60929 16.1 8.04526 16.1C9.63158 16.1 11.1124 15.638 12.36 14.8418C13.3539 14.2076 14.1999 13.3613 14.8336 12.3667ZM10.6541 13.1349C9.87176 13.5386 8.98447 13.7667 8.04526 13.7667C4.89538 13.7667 2.33194 11.2018 2.33194 8.05001C2.33194 7.11026 2.55991 6.22244 2.96334 5.43962C3.50958 4.37912 4.37768 3.5111 5.43752 2.9651C6.2199 2.56143 7.10661 2.33334 8.04521 2.33334C11.1957 2.33334 13.7585 4.89768 13.7585 8.05001C13.7585 8.98919 13.5306 9.87644 13.1271 10.6593C12.5815 11.7198 11.714 12.5884 10.6541 13.1349Z" fill="white"/>
</g>
<g filter="url(#filter2_d_137_1523)">
<path d="M20.488 18.0122L15.8434 13.3765C15.1822 14.3425 14.3352 15.1894 13.3698 15.8516L18.0144 20.4873C18.356 20.8291 18.8038 21 19.2509 21C19.6987 21 20.1464 20.8291 20.4881 20.4873C21.1707 19.8036 21.1707 18.6959 20.488 18.0122Z" fill="white"/>
</g>
</g>
<defs>
<filter id="filter0_d_137_1523" x="-0.0939941" y="3.19995" width="11.6145" height="11.6167" filterUnits="userSpaceOnUse" color-interpolation-filters="sRGB">
<feFlood flood-opacity="0" result="BackgroundImageFix"/>
<feColorMatrix in="SourceAlpha" type="matrix" values="0 0 0 0 0 0 0 0 0 0 0 0 0 0 0 0 0 0 127 0" result="hardAlpha"/>
<feOffset dy="3"/>
<feGaussianBlur stdDeviation="2"/>
<feComposite in2="hardAlpha" operator="out"/>
<feColorMatrix type="matrix" values="0 0 0 0 0 0 0 0 0 0 0 0 0 0 0 0 0 0 0.35 0"/>
<feBlend mode="normal" in2="BackgroundImageFix" result="effect1_dropShadow_137_1523"/>
<feBlend mode="normal" in="SourceGraphic" in2="effect1_dropShadow_137_1523" result="shape"/>
</filter>
<filter id="filter1_d_137_1523" x="-4" y="-1" width="24.0905" height="24.1" filterUnits="userSpaceOnUse" color-interpolation-filters="sRGB">
<feFlood flood-opacity="0" result="BackgroundImageFix"/>
<feColorMatrix in="SourceAlpha" type="matrix" values="0 0 0 0 0 0 0 0 0 0 0 0 0 0 0 0 0 0 127 0" result="hardAlpha"/>
<feOffset dy="3"/>
<feGaussianBlur stdDeviation="2"/>
<feComposite in2="hardAlpha" operator="out"/>
<feColorMatrix type="matrix" values="0 0 0 0 0 0 0 0 0 0 0 0 0 0 0 0 0 0 0.35 0"/>
<feBlend mode="normal" in2="BackgroundImageFix" result="effect1_dropShadow_137_1523"/>
<feBlend mode="normal" in="SourceGraphic" in2="effect1_dropShadow_137_1523" result="shape"/>
</filter>
<filter id="filter2_d_137_1523" x="9.36975" y="12.3765" width="15.6302" height="15.6235" filterUnits="userSpaceOnUse" color-interpolation-filters="sRGB">
<feFlood flood-opacity="0" result="BackgroundImageFix"/>
<feColorMatrix in="SourceAlpha" type="matrix" values="0 0 0 0 0 0 0 0 0 0 0 0 0 0 0 0 0 0 127 0" result="hardAlpha"/>
<feOffset dy="3"/>
<feGaussianBlur stdDeviation="2"/>
<feComposite in2="hardAlpha" operator="out"/>
<feColorMatrix type="matrix" values="0 0 0 0 0 0 0 0 0 0 0 0 0 0 0 0 0 0 0.35 0"/>
<feBlend mode="normal" in2="BackgroundImageFix" result="effect1_dropShadow_137_1523"/>
<feBlend mode="normal" in="SourceGraphic" in2="effect1_dropShadow_137_1523" result="shape"/>
</filter>
<clipPath id="clip0_137_1523">
<rect width="21" height="21" fill="white"/>
</clipPath>
</defs>
</svg>
