<svg width="70" height="70" viewBox="0 0 70 70" fill="none" xmlns="http://www.w3.org/2000/svg">
<g clip-path="url(#clip0_69_1519)">
<path d="M70 35.0002C70 46.1005 64.8327 55.9938 56.7718 62.4056C50.7961 67.1604 43.2312 70 35.0002 70C26.7692 70 19.2043 67.1604 13.2281 62.4056C5.16764 55.9938 0 46.1005 0 35.0002C0 15.6704 15.6708 0 35.0002 0C54.3296 0 70 15.6704 70 35.0002Z" fill="#8E8D8D"/>
<path d="M35 46.1572C42.5126 46.1572 48.6026 40.0671 48.6026 32.5546C48.6026 25.0421 42.5126 18.952 35 18.952C27.4875 18.952 21.3975 25.0421 21.3975 32.5546C21.3975 40.0671 27.4875 46.1572 35 46.1572Z" fill="#EEEEEE" fill-opacity="0.933333"/>
<path d="M56.7717 62.4057C50.7959 67.1605 43.2311 70 35 70C26.769 70 19.2041 67.1605 13.228 62.4057C17.6041 55.977 25.7166 51.6595 35 51.6595C44.2835 51.6595 52.3967 55.976 56.7717 62.4057Z" fill="#EEEEEE" fill-opacity="0.933333"/>
</g>
<defs>
<clipPath id="clip0_69_1519">
<rect width="70" height="70" fill="white"/>
</clipPath>
</defs>
</svg>
