<svg width="59" height="59" viewBox="0 0 59 59" fill="none" xmlns="http://www.w3.org/2000/svg">
<g clip-path="url(#clip0_247_1504)">
<path d="M50.3702 8.63264C38.8616 -2.87708 20.1373 -2.87708 8.6309 8.62986C-2.87771 20.1368 -2.8766 38.8617 8.63202 50.3708C20.1373 61.8772 38.8616 61.8772 50.3691 50.3686C61.8766 38.8617 61.876 20.1379 50.3702 8.63264ZM47.1498 47.1504C37.418 56.8823 21.5825 56.8834 11.8502 47.1516C2.11614 37.4181 2.11725 21.5809 11.8502 11.8491C21.582 2.11788 37.4169 2.11677 47.1509 11.8502C56.8827 21.5821 56.8816 37.4192 47.1498 47.1504ZM42.8441 41.1664C43.2101 42.0125 42.8207 42.9944 41.9752 43.3599C41.129 43.727 40.1472 43.3365 39.7811 42.4909C38.1718 38.7699 34.3684 36.365 30.0899 36.365C25.713 36.365 21.8863 38.7677 20.3426 42.4865C20.0761 43.1284 19.4547 43.5162 18.8011 43.5162C18.5875 43.5162 18.3711 43.475 18.1613 43.3882C17.3102 43.0344 16.9069 42.0576 17.2601 41.207C19.324 36.2382 24.3607 33.0278 30.0899 33.0278C35.6996 33.0278 40.7063 36.222 42.8441 41.1664ZM18.4912 21.5125C18.4912 19.6078 20.036 18.0629 21.9408 18.0629C23.845 18.0629 25.3898 19.6072 25.3898 21.5125C25.3898 23.4184 23.845 24.9627 21.9408 24.9627C20.036 24.9627 18.4912 23.4184 18.4912 21.5125ZM34.1325 21.5125C34.1325 19.6078 35.6785 18.0629 37.5832 18.0629C39.4874 18.0629 41.0323 19.6072 41.0323 21.5125C41.0323 23.4184 39.488 24.9627 37.5832 24.9627C35.6785 24.9627 34.1325 23.4184 34.1325 21.5125Z" fill="white"/>
</g>
<defs>
<clipPath id="clip0_247_1504">
<rect width="59" height="59" fill="white"/>
</clipPath>
</defs>
</svg>
